<svg width="20" height="20" viewBox="0 0 20 20" fill="none" xmlns="http://www.w3.org/2000/svg">
<path d="M4.8529 3.02663L9.99957 8.17329L15.1196 3.05329C15.2327 2.93292 15.3689 2.83662 15.5201 2.77018C15.6713 2.70373 15.8344 2.66851 15.9996 2.66663C16.3532 2.66663 16.6923 2.8071 16.9424 3.05715C17.1924 3.3072 17.3329 3.64634 17.3329 3.99996C17.336 4.16343 17.3057 4.32581 17.2438 4.47713C17.1819 4.62846 17.0897 4.76554 16.9729 4.87996L11.7862 9.99996L16.9729 15.1866C17.1927 15.4016 17.3215 15.6927 17.3329 16C17.3329 16.3536 17.1924 16.6927 16.9424 16.9428C16.6923 17.1928 16.3532 17.3333 15.9996 17.3333C15.8296 17.3403 15.6601 17.312 15.5017 17.25C15.3433 17.188 15.1996 17.0938 15.0796 16.9733L9.99957 11.8266L4.86623 16.96C4.75357 17.0763 4.61899 17.1692 4.47024 17.2333C4.32149 17.2974 4.16152 17.3314 3.99957 17.3333C3.64594 17.3333 3.30681 17.1928 3.05676 16.9428C2.80671 16.6927 2.66623 16.3536 2.66623 16C2.66312 15.8365 2.69345 15.6741 2.75536 15.5228C2.81727 15.3715 2.90944 15.2344 3.02623 15.12L8.2129 9.99996L3.02623 4.81329C2.80648 4.5983 2.67762 4.30718 2.66623 3.99996C2.66623 3.64634 2.80671 3.3072 3.05676 3.05715C3.30681 2.8071 3.64594 2.66663 3.99957 2.66663C4.31957 2.67063 4.62623 2.79996 4.8529 3.02663Z" fill="#313131"/>
</svg>
