<svg width="21" height="21" viewBox="0 0 21 21" fill="none" xmlns="http://www.w3.org/2000/svg">
<path fill-rule="evenodd" clip-rule="evenodd" d="M3.05469 17.1053H17.8203C18.1 17.1053 18.3683 17.2051 18.5661 17.3827C18.7639 17.5604 18.875 17.8014 18.875 18.0526C18.875 18.3039 18.7639 18.5449 18.5661 18.7225C18.3683 18.9002 18.1 19 17.8203 19H3.05469C2.77497 19 2.5067 18.9002 2.30891 18.7225C2.11112 18.5449 2 18.3039 2 18.0526C2 17.8014 2.11112 17.5604 2.30891 17.3827C2.5067 17.2051 2.77497 17.1053 3.05469 17.1053ZM11.4922 11.3626C11.4922 11.4492 11.5946 11.4949 11.659 11.437L14.8457 8.57548C14.8837 8.54135 14.9413 8.54135 14.9794 8.57549L16.321 9.78066C16.3653 9.82039 16.3653 9.88971 16.321 9.92945L10.5043 15.1543C10.4663 15.1884 10.4087 15.1884 10.3707 15.1543L4.55395 9.92945C4.50972 9.88971 4.50972 9.82039 4.55395 9.78066L5.89565 8.57549C5.93365 8.54135 5.99127 8.54135 6.02928 8.57548L9.216 11.437C9.28038 11.4949 9.38281 11.4492 9.38281 11.3626V1.1C9.38281 1.04477 9.42758 1 9.48281 1H11.3922C11.4474 1 11.4922 1.04477 11.4922 1.1V11.3626Z" fill="white"/>
</svg>
