<svg width="56" height="57" viewBox="0 0 56 57" fill="none" xmlns="http://www.w3.org/2000/svg">
<g clip-path="url(#clip0_201_8479)">
<path d="M51.3867 14.5398C50.7764 13.2405 49.9167 12.079 48.8584 11.124L40.614 3.5084C38.7994 1.8138 36.4953 0.762852 34.046 0.51257H17.1175C15.2971 0.43392 13.4794 0.724945 11.7704 1.36871C10.0613 2.01247 8.49505 2.99612 7.16265 4.2624C5.83025 5.52868 4.75836 7.0523 4.00935 8.7446C3.26035 10.4369 2.84919 12.2641 2.7998 14.1198V42.9581C2.89702 45.7566 3.81577 48.4611 5.43732 50.7221C7.05888 52.9831 9.30871 54.6967 11.8961 55.6414C13.5783 56.2928 15.3755 56.5789 17.1725 56.4814H37.9483C39.7688 56.56 41.5864 56.269 43.2955 55.6252C45.0045 54.9815 46.5708 53.9978 47.9032 52.7315C49.2356 51.4653 50.3075 49.9416 51.0565 48.2493C51.8055 46.557 52.2167 44.7299 52.266 42.8741V18.8795C52.2793 17.3857 51.9795 15.9061 51.3867 14.5398ZM38.0857 37.1625L30.7757 44.638C30.3549 45.055 29.8608 45.3875 29.3192 45.618C28.951 45.786 28.5662 45.8886 28.165 45.926C27.8032 46.01 27.4275 46.01 27.0657 45.926C26.6668 45.8899 26.2766 45.7858 25.9115 45.618C25.3699 45.3875 24.8758 45.055 24.455 44.638L17.145 37.1625C16.6948 36.6269 16.4595 35.9379 16.4863 35.2332C16.513 34.5286 16.7997 33.8601 17.2891 33.3615C17.7785 32.8629 18.4346 32.5708 19.1263 32.5435C19.8179 32.5163 20.4942 32.756 21.0199 33.2147L24.8672 37.1345V24.2272C24.8672 23.4846 25.1568 22.7725 25.6722 22.2474C26.1875 21.7224 26.8865 21.4274 27.6154 21.4274C28.3442 21.4274 29.0432 21.7224 29.5586 22.2474C30.074 22.7725 30.3635 23.4846 30.3635 24.2272V37.1345L34.2109 33.2147C34.7366 32.756 35.4128 32.5163 36.1045 32.5435C36.7961 32.5708 37.4522 32.8629 37.9416 33.3615C38.431 33.8601 38.7178 34.5286 38.7445 35.2332C38.7712 35.9379 38.5359 36.6269 38.0857 37.1625ZM38.6903 15.6317C38.2982 15.6354 37.9093 15.5599 37.5461 15.4096C37.1828 15.2593 36.8524 15.0372 36.5738 14.756C36.2953 14.4748 36.0742 14.1403 35.9234 13.7715C35.7725 13.4028 35.6948 13.0073 35.6949 12.6079V5.1883C36.4643 5.61388 37.2063 6.08985 37.9208 6.61622L46.1652 14.2598C46.6232 14.6536 47.008 15.1109 47.3194 15.6317H38.6903Z" fill="#0353A4"/>
</g>
<defs>
<clipPath id="clip0_201_8479">
<rect width="56" height="56" fill="white" transform="translate(0 0.5)"/>
</clipPath>
</defs>
</svg>
