<svg width="18" height="17" viewBox="0 0 18 17" fill="none" xmlns="http://www.w3.org/2000/svg">
<path fill-rule="evenodd" clip-rule="evenodd" d="M0.970158 0.46967C1.26305 0.176777 1.73793 0.176777 2.03082 0.46967L17.0308 15.4697C17.3237 15.7626 17.3237 16.2374 17.0308 16.5303C16.7379 16.8232 16.2631 16.8232 15.9702 16.5303L13.3926 13.9527C12.0904 14.6732 10.5926 15.0833 9.00067 15.0833C4.93233 15.0833 1.49052 12.4092 0.33329 8.72471C0.28734 8.5784 0.287341 8.42153 0.333292 8.27523C0.88166 6.52931 1.94201 5.01187 3.33757 3.89774L0.970158 1.53033C0.677265 1.23744 0.677265 0.762563 0.970158 0.46967ZM4.4062 4.96637C3.23553 5.85929 2.33289 7.08463 1.83886 8.49998C2.87216 11.4606 5.68945 13.5833 9.00067 13.5833C10.1761 13.5833 11.2878 13.3164 12.2797 12.8399L10.7065 11.2666C10.2106 11.5729 9.62589 11.75 9.00049 11.75C7.20556 11.75 5.75049 10.2949 5.75049 8.5C5.75049 7.87464 5.92762 7.28986 6.23386 6.79403L4.4062 4.96637ZM7.3516 7.91177C7.28608 8.09552 7.25049 8.29346 7.25049 8.5C7.25049 9.4665 8.03399 10.25 9.00049 10.25C9.20702 10.25 9.40496 10.2144 9.58871 10.1489L7.3516 7.91177ZM9.00065 3.41667C8.74414 3.41667 8.49082 3.42938 8.24127 3.45416C7.82908 3.49509 7.46176 3.19413 7.42083 2.78194C7.37989 2.36976 7.68085 2.00243 8.09304 1.9615C8.39177 1.93183 8.69455 1.91667 9.00065 1.91667C13.069 1.91667 16.5108 4.59076 17.668 8.2753C17.714 8.4216 17.714 8.57847 17.668 8.72477C17.4128 9.53737 17.0466 10.3005 16.5875 10.9964C16.3594 11.3421 15.8942 11.4375 15.5484 11.2094C15.2027 10.9812 15.1073 10.516 15.3355 10.1703C15.6762 9.65391 15.9552 9.09367 16.1625 8.50002C15.1292 5.53941 12.3119 3.41667 9.00065 3.41667Z" fill="#313131"/>
</svg>
