<svg width="25" height="25" viewBox="0 0 25 25" fill="none" xmlns="http://www.w3.org/2000/svg">
<g clip-path="url(#clip0_201_11192)">
<path d="M8.70803 0.822346C6.21015 1.68889 4.05597 3.33361 2.56192 5.51493C1.06788 7.69625 0.312706 10.2992 0.407337 12.9414C0.501967 15.5836 1.44141 18.1259 3.08768 20.1947C4.73394 22.2636 7.00026 23.75 9.55374 24.4356C11.6239 24.9698 13.7928 24.9933 15.8741 24.504C17.7594 24.0805 19.5025 23.1746 20.9326 21.8751C22.4211 20.4812 23.5015 18.708 24.0576 16.7462C24.6622 14.6127 24.7697 12.3691 24.3721 10.1876H12.7471V15.0098H19.4795C19.345 15.779 19.0566 16.513 18.6318 17.1681C18.2069 17.8232 17.6542 18.3858 17.0069 18.8223C16.1848 19.3662 15.258 19.7321 14.2862 19.8966C13.3114 20.0778 12.3117 20.0778 11.3369 19.8966C10.349 19.6923 9.41448 19.2846 8.5928 18.6993C7.27278 17.7649 6.28162 16.4374 5.76077 14.9063C5.23111 13.3466 5.23111 11.6556 5.76077 10.0958C6.13152 9.00246 6.74443 8.00699 7.55374 7.18367C8.47989 6.2242 9.65243 5.53836 10.9427 5.2014C12.233 4.86445 13.5912 4.8894 14.8682 5.27352C15.8658 5.57975 16.778 6.1148 17.5323 6.83602C18.2914 6.08081 19.0492 5.32365 19.8057 4.56453C20.1963 4.15633 20.6221 3.76766 21.0069 3.34969C19.8556 2.27835 18.5043 1.44472 17.0303 0.896565C14.3461 -0.0780646 11.4092 -0.104257 8.70803 0.822346Z" fill="white"/>
<path d="M8.71094 0.822318C11.4118 -0.104914 14.3488 -0.0794112 17.0332 0.894584C18.5075 1.44647 19.8582 2.28411 21.0078 3.35943C20.6172 3.7774 20.2051 4.16802 19.8066 4.57427C19.0488 5.33078 18.2917 6.08469 17.5352 6.83599C16.781 6.11477 15.8687 5.57972 14.8711 5.27349C13.5945 4.88802 12.2364 4.86163 10.9457 5.19721C9.65512 5.53278 8.48186 6.21736 7.55469 7.17583C6.74538 7.99915 6.13247 8.99462 5.76172 10.0879L1.71289 6.95318C3.16213 4.07927 5.67138 1.88096 8.71094 0.822318Z" fill="#E33629"/>
<path d="M0.636713 10.0583C0.854333 8.97982 1.21563 7.93535 1.71093 6.95288L5.75976 10.0955C5.2301 11.6552 5.2301 13.3462 5.75976 14.906C4.4108 15.9477 3.06119 16.9945 1.71093 18.0466C0.470992 15.5785 0.0928316 12.7664 0.636713 10.0583Z" fill="#F8BD00"/>
<path d="M12.7489 10.1858H24.3739C24.7716 12.3673 24.664 14.6109 24.0595 16.7444C23.5033 18.7063 22.4229 20.4794 20.9345 21.8733C19.6278 20.8538 18.3153 19.842 17.0087 18.8225C17.6565 18.3856 18.2094 17.8223 18.6343 17.1665C19.0592 16.5107 19.3473 15.7759 19.4813 15.0061H12.7489C12.747 13.4006 12.7489 11.7932 12.7489 10.1858Z" fill="#587DBD"/>
<path d="M1.70898 18.0469C3.05924 17.0052 4.40885 15.9583 5.75781 14.9062C6.2797 16.4379 7.27228 17.7654 8.59375 18.6992C9.41798 19.2818 10.3546 19.6862 11.3438 19.8867C12.3185 20.068 13.3182 20.068 14.293 19.8867C15.2648 19.7222 16.1916 19.3563 17.0137 18.8125C18.3203 19.832 19.6328 20.8438 20.9395 21.8633C19.5096 23.1635 17.7664 24.0701 15.8809 24.4941C13.7996 24.9834 11.6307 24.96 9.56055 24.4258C7.92325 23.9886 6.3939 23.218 5.06836 22.1621C3.66535 21.0482 2.51944 19.6445 1.70898 18.0469Z" fill="#319F43"/>
</g>
<defs>
<clipPath id="clip0_201_11192">
<rect width="25" height="25" fill="white"/>
</clipPath>
</defs>
</svg>
