<svg width="26" height="26" viewBox="0 0 26 26" fill="none" xmlns="http://www.w3.org/2000/svg">
<path d="M3.67693 8.36612C3.88179 8.41632 4.07341 8.51011 4.23872 8.64109C4.40404 8.77207 4.53916 8.93717 4.63487 9.12512C4.73059 9.31306 4.78464 9.51944 4.79335 9.73018C4.80206 9.94091 4.76521 10.151 4.68533 10.3463L4.55699 10.6946C4.24988 11.8359 4.17531 13.0272 4.3377 14.1979C4.5001 15.3686 4.89614 16.4947 5.5023 17.5092C6.10847 18.5238 6.91238 19.4062 7.86628 20.104C8.82019 20.8018 9.90461 21.3007 11.0551 21.5711C12.2057 21.8416 13.3988 21.878 14.5637 21.6782C15.7285 21.4784 16.8414 21.0465 17.836 20.4082C18.8307 19.7699 19.6869 18.9381 20.3538 17.9624C21.0207 16.9866 21.4846 15.8868 21.7181 14.7282C21.8464 13.9215 22.5065 13.2614 23.3132 13.2614C24.1199 13.2614 24.7983 13.9215 24.6883 14.7282C24.4586 16.3466 23.8938 17.8992 23.0301 19.287C22.1663 20.6747 21.0226 21.867 19.6719 22.7877C18.3213 23.7083 16.7935 24.3371 15.186 24.6339C13.5786 24.9306 11.9269 24.8888 10.3366 24.5111C8.74626 24.1333 7.2522 23.428 5.94989 22.4401C4.64759 21.4522 3.56567 20.2036 2.77328 18.7739C1.98089 17.3442 1.49545 15.765 1.34798 14.137C1.20051 12.5091 1.39425 10.8683 1.91682 9.31952C2.03489 8.96722 2.28226 8.67287 2.60896 8.4959C2.93567 8.31894 3.31735 8.27255 3.67693 8.36612Z" fill="url(#paint0_linear_201_14234)"/>
<defs>
<linearGradient id="paint0_linear_201_14234" x1="21.2982" y1="22.0865" x2="1.77985" y2="9.75789" gradientUnits="userSpaceOnUse">
<stop stop-color="#0353A4"/>
<stop offset="0.8" stop-color="#0353A4" stop-opacity="0.1"/>
<stop offset="0.9" stop-color="#0353A4" stop-opacity="0"/>
<stop offset="1" stop-color="#0353A4" stop-opacity="0"/>
</linearGradient>
</defs>
</svg>
