<svg width="43" height="43" viewBox="0 0 43 43" fill="none" xmlns="http://www.w3.org/2000/svg">
<path d="M15.4962 19.4108C14.7484 19.4311 13.9111 19.4121 13.1542 19.4118L6.04406 19.4121C4.42993 19.412 3.16861 19.456 1.82403 18.3831C-0.0206964 16.9109 0.0162363 15.2245 0.0168188 13.1318L0.0185065 6.0462C0.0162004 5.33512 -0.0485472 4.42114 0.078655 3.73645C0.489076 1.52708 2.19856 0.244467 4.31855 0.00187819L11.4029 0C13.3588 0.000784539 13.2377 0.300989 14.6527 1.70842L17.4477 4.52443C19.236 6.34908 19.7114 6.04549 19.7093 8.66787L19.7097 13.5293C19.7099 14.3181 19.7533 15.1914 19.5949 15.9528C19.1516 18.0849 17.54 19.2116 15.4962 19.4108ZM4.46405 3.99546C3.75832 4.11647 4.01793 5.90225 4.01912 6.50421L4.01876 13.4129C4.01852 13.9532 3.99523 14.6937 4.01888 15.2169C4.51469 15.6535 5.12924 15.5207 5.75865 15.5202L15.1706 15.5181C16.0516 15.2952 15.6879 12.5942 15.6878 11.7496L15.6881 10.1335C15.6889 9.89317 15.7047 9.54311 15.6865 9.3119L13.809 9.31452C10.2838 9.31701 10.7194 8.24172 10.6029 5.0792C10.5846 4.58327 10.785 4.02625 10.1474 3.98619C8.25598 4.01306 6.35467 3.98001 4.46405 3.99546Z" fill="#0353A4"/>
<path d="M34.673 19.211C32.4195 19.2202 32.674 17.3218 32.5327 15.8061C32.2748 13.0432 29.8428 10.3508 26.976 10.2651C26.2439 10.2447 25.5931 10.3472 24.9893 9.82659C23.6122 8.63896 24.1262 6.35001 26.3081 6.20214C31.426 5.71144 36.2824 10.8281 36.6251 15.8045C36.7332 17.3743 36.6014 19.0715 34.673 19.211Z" fill="#0353A4"/>
<path d="M38.7748 42.6839L26.9631 42.6856C24.4942 42.6861 22.7012 42.0002 22.6881 39.2133L22.6831 28.233C22.6843 24.807 23.1859 23.303 26.9036 23.255L38.6245 23.2535C39.1815 23.2535 39.8279 23.2262 40.3722 23.3237C42.6595 23.7332 42.9986 25.543 42.9997 27.4318L43 38.1272C42.9991 41.3087 42.1359 42.7015 38.7748 42.6839ZM28.1932 30.7279V33.3916H33.6685V30.7279H28.1932ZM28.4049 34.6888C27.9547 34.7337 28.1775 36.7942 28.1932 37.302H37.2047C37.5861 37.2527 37.4044 35.143 37.4037 34.6888C34.4306 34.6532 31.3832 34.6889 28.4049 34.6888Z" fill="#0353A4"/>
<path d="M17.1159 36.2646C11.3915 36.6702 6.43481 32.0252 6.29882 26.2837C6.26637 24.9178 6.40307 23.7367 7.99961 23.4941C9.56583 23.2886 10.1634 24.4978 10.2112 25.883C10.3243 29.1637 12.5858 31.7208 15.8187 32.2366C16.3709 32.3247 17.5385 32.4276 17.914 32.7264C19.2681 33.804 18.835 35.9306 17.1159 36.2646Z" fill="#0353A4"/>
</svg>
