<svg width="38" height="38" viewBox="0 0 38 38" fill="none" xmlns="http://www.w3.org/2000/svg">
<path d="M18.314 27.1431C20.1901 27.1431 21.7055 25.6231 21.7055 23.7412C21.7055 21.8773 20.1901 20.3574 18.314 20.3574C16.4558 20.3574 14.9404 21.8774 14.9404 23.7412C14.9402 25.6231 16.4556 27.1431 18.314 27.1431Z" fill="#0353A4"/>
<path fill-rule="evenodd" clip-rule="evenodd" d="M7.48994 0H13.5876C17.3219 0 20.3527 3.04003 20.3527 6.7857V10.1695C20.3527 12.0516 21.8681 13.5714 23.7262 13.5714H27.1178C30.8521 13.5714 33.8829 16.6114 33.8829 20.3571V34.5981C33.8829 36.4802 32.3675 38 30.5093 38H7.48974C5.63161 38 4.11621 36.48 4.11621 34.5981V3.38362C4.11621 1.52002 5.63163 0 7.48994 0ZM18.3142 29.8575C19.5229 29.8575 20.6235 29.5137 21.5616 28.9165L23.4557 30.8166C23.979 31.3411 24.8448 31.3411 25.3681 30.8166C25.891 30.2917 25.891 29.4233 25.3681 28.8984L23.4737 26.9984C24.0691 26.0574 24.4119 24.9537 24.4119 23.7411C24.4119 20.3754 21.6877 17.6429 18.3142 17.6429C14.9587 17.6429 12.2346 20.3754 12.2346 23.7411C12.2346 27.1251 14.9585 29.8575 18.3142 29.8575Z" fill="#0353A4"/>
<path d="M23.0593 6.786C23.0593 4.41542 22.1934 2.24405 20.75 0.579102C26.8838 2.17149 31.7187 7.02122 33.3063 13.1736C31.6464 11.726 29.4818 10.8573 27.1183 10.8573H23.7267C23.3659 10.8573 23.0593 10.5496 23.0593 10.1698V6.786Z" fill="#0353A4"/>
</svg>
