<svg width="50" height="50" viewBox="0 0 50 50" fill="none" xmlns="http://www.w3.org/2000/svg">
<path d="M18.4962 23.4108C17.7484 23.4311 16.9111 23.4121 16.1542 23.4118L9.04406 23.4121C7.42993 23.412 6.16861 23.456 4.82403 22.3831C2.9793 20.9109 3.01624 19.2245 3.01682 17.1318L3.01851 10.0462C3.0162 9.33512 2.95145 8.42114 3.07865 7.73645C3.48908 5.52708 5.19856 4.24447 7.31855 4.00188L14.4029 4C16.3588 4.00078 16.2377 4.30099 17.6527 5.70842L20.4477 8.52443C22.236 10.3491 22.7114 10.0455 22.7093 12.6679L22.7097 17.5293C22.7099 18.3181 22.7533 19.1914 22.5949 19.9528C22.1516 22.0849 20.54 23.2116 18.4962 23.4108ZM7.46405 7.99546C6.75832 8.11647 7.01793 9.90225 7.01912 10.5042L7.01876 17.4129C7.01852 17.9532 6.99523 18.6937 7.01888 19.2169C7.51469 19.6535 8.12924 19.5207 8.75865 19.5202L18.1706 19.5181C19.0516 19.2952 18.6879 16.5942 18.6878 15.7496L18.6881 14.1335C18.6889 13.8932 18.7047 13.5431 18.6865 13.3119L16.809 13.3145C13.2838 13.317 13.7194 12.2417 13.6029 9.0792C13.5846 8.58327 13.785 8.02625 13.1474 7.98619C11.256 8.01306 9.35467 7.98001 7.46405 7.99546Z" fill="white"/>
<path d="M37.6725 23.211C35.419 23.2202 35.6735 21.3218 35.5322 19.8061C35.2743 17.0432 32.8423 14.3508 29.9755 14.2651C29.2434 14.2447 28.5926 14.3472 27.9888 13.8266C26.6117 12.639 27.1257 10.35 29.3076 10.2021C34.4255 9.71144 39.2819 14.8281 39.6246 19.8045C39.7327 21.3743 39.601 23.0715 37.6725 23.211Z" fill="white"/>
<path d="M41.7743 46.6839L29.9626 46.6856C27.4937 46.6861 25.7007 46.0002 25.6876 43.2133L25.6826 32.233C25.6838 28.807 26.1854 27.303 29.9031 27.255L41.624 27.2535C42.181 27.2535 42.8274 27.2262 43.3717 27.3237C45.659 27.7332 45.9981 29.543 45.9992 31.4318L45.9995 42.1272C45.9986 45.3087 45.1354 46.7015 41.7743 46.6839ZM31.1927 34.7279V37.3916H36.6681V34.7279H31.1927ZM31.4044 38.6888C30.9542 38.7337 31.177 40.7942 31.1927 41.302H40.2042C40.5856 41.2527 40.4039 39.143 40.4032 38.6888C37.4301 38.6532 34.3827 38.6889 31.4044 38.6888Z" fill="white"/>
<path d="M20.1159 40.2646C14.3915 40.6702 9.43481 36.0252 9.29882 30.2837C9.26637 28.9178 9.40307 27.7367 10.9996 27.4941C12.5658 27.2886 13.1634 28.4978 13.2112 29.883C13.3243 33.1637 15.5858 35.7208 18.8187 36.2366C19.3709 36.3247 20.5385 36.4276 20.914 36.7264C22.2681 37.804 21.835 39.9306 20.1159 40.2646Z" fill="white"/>
</svg>
