<svg width="38" height="38" viewBox="0 0 38 38" fill="none" xmlns="http://www.w3.org/2000/svg">
<path d="M32.706 25.8239C30.2341 31.4662 25.4037 35.6349 19.0978 38C12.7919 35.6349 8.05702 31.4663 5.58607 25.8239C3.31931 20.6485 2.65477 14.2235 3.55373 6.18114L3.64163 5.3994L4.42621 5.34363C9.21119 5.00143 14.4631 3.07782 19.0978 0C23.7325 3.07876 29.0808 5.00143 33.8658 5.34363L34.6504 5.3994L34.7373 6.18114C35.6373 14.2235 34.9727 20.6485 32.706 25.8239Z" fill="#0353A4"/>
<path d="M11.1621 18.7693L13.4671 16.8101L17.9617 21.3047L27.4121 12.3154L29.6018 14.3899L18.3075 25.6842L11.1621 18.7693Z" fill="white"/>
</svg>
