<svg width="38" height="38" viewBox="0 0 38 38" fill="none" xmlns="http://www.w3.org/2000/svg">
<g clip-path="url(#clip0_201_8503)">
<path d="M20.456 37.9533C15.6792 38.2869 10.9032 36.8251 7.1872 33.8141C3.06021 30.47 0.585586 25.8463 0.0821622 20.5949C-0.390531 15.6639 1.19272 10.6483 4.40991 6.85925C7.77055 2.90155 12.5156 0.473551 17.7161 0.0400426C22.4462 -0.26864 27.241 1.21595 30.912 4.19626C34.9631 7.48521 37.3814 12.0381 37.9028 17.1903C38.4266 22.3643 36.8164 27.3973 33.4708 31.3947C30.2179 35.2813 25.4813 37.4882 20.456 37.9533ZM18.8228 4.14926C16.9765 4.27311 15.4323 4.91155 14.2032 6.3167C13.0152 7.67496 12.8288 9.15026 12.7513 10.8742L12.8026 10.91C13.5634 11.4506 14.219 12.0887 14.8136 12.8016C16.2058 12.0486 17.7569 11.5344 19.3608 11.604C20.7447 11.7505 22.036 12.1408 23.2136 12.89C23.8629 12.1318 24.5509 11.4761 25.2974 10.8108C25.2222 10.2641 25.2334 9.7061 25.1442 9.16575C24.8913 7.6369 24.0252 6.37124 22.7959 5.42973C21.6462 4.54917 20.263 4.14842 18.8228 4.14926ZM10.6129 12.5858C8.68446 12.8106 6.9903 13.3148 5.73906 14.8892C4.68415 16.2162 4.13337 17.9047 4.31974 19.5961C4.50501 21.2779 5.44498 22.9673 6.79603 24.0032C7.29903 24.389 7.84165 24.6543 8.42873 24.8915C9.1714 25.1378 9.88487 25.2631 10.6572 25.3702L10.7077 25.2997C11.3118 24.4806 12.1251 23.7386 12.9117 23.0933C11.8024 21.3179 11.2573 19.3691 11.7539 17.2894C11.9778 16.3521 12.3428 15.5313 12.8974 14.7383L12.7987 14.6668C12.1985 14.2252 11.6871 13.6663 11.1683 13.1362C11.0334 12.9985 10.7773 12.6571 10.6129 12.5858ZM27.4906 12.5539L25.2083 14.777C26.3485 16.7263 26.8599 18.5757 26.2455 20.8203C26.0277 21.6162 25.6379 22.3566 25.1903 23.0478L27.4994 25.4028C28.3724 25.3047 29.2375 25.1988 30.0638 24.8852C31.7427 24.1497 33.0265 22.9838 33.6907 21.2619C34.2876 19.7147 34.2451 17.8548 33.5454 16.3458C32.8059 14.7511 31.5741 13.5872 29.8994 12.9969C29.1276 12.7247 28.2978 12.6514 27.4906 12.5539ZM14.8527 24.948L12.628 27.2005C12.9247 29.2359 13.4994 31.0303 15.2424 32.3118C16.5781 33.2939 18.3664 33.6741 20.0034 33.4464C21.1547 33.2863 22.2064 32.7953 23.1127 32.0849C24.6797 30.7001 25.1147 29.2001 25.5249 27.2212C24.7296 26.5221 23.8497 25.8117 23.1799 24.9893C21.5194 26.0627 19.5273 26.5144 17.571 26.1152C16.5606 25.909 15.7041 25.524 14.8527 24.948Z" fill="#0353A4"/>
</g>
<defs>
<clipPath id="clip0_201_8503">
<rect width="38" height="38" fill="white"/>
</clipPath>
</defs>
</svg>
