<svg width="24" height="24" viewBox="0 0 24 24" fill="none" xmlns="http://www.w3.org/2000/svg">
<rect width="24" height="24" rx="2.4" fill="#F5F7F9"/>
<path d="M13.569 16.5706L14.9628 18.0001L17.7504 15.141M12.1752 5.13428H9.94509C8.77419 5.13428 8.18874 5.13428 7.74152 5.36799C7.34813 5.57357 7.02829 5.90161 6.82785 6.30509C6.59998 6.76378 6.59998 7.36424 6.59998 8.56517V14.5692C6.59998 15.7701 6.59998 16.3706 6.82785 16.8293C7.02829 17.2328 7.34813 17.5608 7.74152 17.7664C8.18874 18.0001 8.77419 18.0001 9.94509 18.0001H11.1298M12.1752 5.13428L16.3566 9.42289M12.1752 5.13428V7.13563C12.1752 7.93625 12.1752 8.33655 12.3271 8.64235C12.4607 8.91133 12.6739 9.13003 12.9362 9.26708C13.2343 9.42289 13.6246 9.42289 14.4052 9.42289H16.3566M16.3566 9.42289V12.6393M9.38757 15.141H11.1298M9.38757 12.282H13.569M9.38757 9.42289H10.0845" stroke="#0466C8" stroke-width="1.25442" stroke-linecap="round" stroke-linejoin="round"/>
</svg>
