<svg width="16" height="16" viewBox="0 0 16 16" fill="none" xmlns="http://www.w3.org/2000/svg">
<path fill-rule="evenodd" clip-rule="evenodd" d="M5.87451 0.806153L8.17789 0.806153C8.34771 0.806153 8.51057 0.873611 8.63064 0.993688L12.8992 5.26225C13.0193 5.38233 13.0867 5.54519 13.0867 5.715V7.84928C13.0867 8.2029 12.8001 8.48957 12.4465 8.48957C12.0928 8.48957 11.8062 8.2029 11.8062 7.84928V6.35529L10.4293 6.35529C10.0523 6.3553 9.73133 6.35531 9.46779 6.33377C9.19093 6.31115 8.92159 6.26161 8.6641 6.13042C8.2759 5.93262 7.96028 5.617 7.76248 5.22879C7.63128 4.9713 7.58174 4.70196 7.55912 4.4251C7.53759 4.16157 7.5376 3.84058 7.53761 3.46362L7.53761 2.08672H5.90133C5.29311 2.08672 4.87545 2.08722 4.55167 2.11367C4.23537 2.13952 4.06547 2.1869 3.9425 2.24956C3.66138 2.39279 3.43283 2.62134 3.2896 2.90246C3.22694 3.02543 3.17955 3.19534 3.15371 3.51164C3.12726 3.83541 3.12676 4.25307 3.12676 4.86129V10.8373C3.12676 11.4455 3.12726 11.8632 3.15371 12.1869C3.17955 12.5032 3.22694 12.6731 3.2896 12.7961C3.43283 13.0772 3.66138 13.3058 3.9425 13.449C4.06547 13.5117 4.23537 13.559 4.55167 13.5849C4.87545 13.6113 5.29311 13.6118 5.90133 13.6118H7.46647C7.82009 13.6118 8.10675 13.8985 8.10675 14.2521C8.10675 14.6057 7.82009 14.8924 7.46647 14.8924H5.87453C5.29965 14.8924 4.82949 14.8924 4.4474 14.8612C4.0519 14.8289 3.69471 14.76 3.36113 14.59C2.83906 14.324 2.41461 13.8995 2.1486 13.3775C1.97863 13.0439 1.90971 12.6867 1.8774 12.2912C1.84618 11.9091 1.84618 11.439 1.84619 10.8641V4.83447C1.84618 4.25959 1.84618 3.78945 1.8774 3.40736C1.90971 3.01186 1.97863 2.65467 2.1486 2.32109C2.41461 1.79902 2.83906 1.37457 3.36113 1.10856C3.69471 0.938595 4.0519 0.86967 4.4474 0.837357C4.82949 0.806139 5.29963 0.806145 5.87451 0.806153ZM8.81818 2.99222L10.9007 5.07472H10.4545C10.0455 5.07472 9.77722 5.07422 9.57207 5.05746C9.3744 5.04131 9.29235 5.01331 9.24547 4.98942C9.09822 4.91439 8.9785 4.79468 8.90347 4.64743C8.87959 4.60055 8.85159 4.51849 8.83544 4.32082C8.81868 4.11568 8.81818 3.84744 8.81818 3.43843V2.99222ZM4.6919 5.715C4.6919 5.36138 4.97857 5.07472 5.33219 5.07472H6.04361C6.39723 5.07472 6.6839 5.36138 6.6839 5.715C6.6839 6.06862 6.39723 6.35529 6.04361 6.35529H5.33219C4.97857 6.35529 4.6919 6.06862 4.6919 5.715ZM4.6919 8.56071C4.6919 8.20709 4.97857 7.92043 5.33219 7.92043H9.60075C9.95437 7.92043 10.241 8.20709 10.241 8.56071C10.241 8.91433 9.95437 9.20099 9.60075 9.20099H5.33219C4.97857 9.20099 4.6919 8.91433 4.6919 8.56071ZM11.735 10.0547C12.0886 10.0547 12.3753 10.3414 12.3753 10.695V11.8333H13.5136C13.8672 11.8333 14.1539 12.1199 14.1539 12.4736C14.1539 12.8272 13.8672 13.1138 13.5136 13.1138H12.3753V14.2521C12.3753 14.6057 12.0886 14.8924 11.735 14.8924C11.3814 14.8924 11.0947 14.6057 11.0947 14.2521V13.1138H9.95646C9.60284 13.1138 9.31618 12.8272 9.31618 12.4736C9.31618 12.1199 9.60284 11.8333 9.95646 11.8333H11.0947V10.695C11.0947 10.3414 11.3814 10.0547 11.735 10.0547ZM4.6919 11.4064C4.6919 11.0528 4.97857 10.7661 5.33219 10.7661H7.46647C7.82009 10.7661 8.10675 11.0528 8.10675 11.4064C8.10675 11.76 7.82009 12.0467 7.46647 12.0467H5.33219C4.97857 12.0467 4.6919 11.76 4.6919 11.4064Z" fill="#69758E"/>
</svg>
