<svg width="40" height="41" viewBox="0 0 40 41" fill="none" xmlns="http://www.w3.org/2000/svg">
<rect y="0.5" width="40" height="40" rx="4" fill="#F5F7F9"/>
<path d="M22.615 27.9268L24.938 30.2498L29.584 25.6038M20.292 9.34277H16.5752C14.6237 9.34277 13.6479 9.34277 12.9026 9.72256C12.2469 10.0566 11.7139 10.5897 11.3798 11.2453C11 11.9907 11 12.9665 11 14.918V24.6746C11 26.6261 11 27.6018 11.3798 28.3472C11.7139 29.0028 12.2469 29.5359 12.9026 29.87C13.6479 30.2498 14.6237 30.2498 16.5752 30.2498H18.5497M20.292 9.34277L27.261 16.3118M20.292 9.34277V12.595C20.292 13.896 20.292 14.5465 20.5452 15.0434C20.7679 15.4805 21.1233 15.8359 21.5604 16.0586C22.0573 16.3118 22.7078 16.3118 24.0088 16.3118H27.261M27.261 16.3118V21.5385M15.646 25.6038H18.5497M15.646 20.9578H22.615M15.646 16.3118H16.8075" stroke="#0353A4" stroke-width="2.0907" stroke-linecap="round" stroke-linejoin="round"/>
</svg>
