<svg width="40" height="41" viewBox="0 0 40 41" fill="none" xmlns="http://www.w3.org/2000/svg">
<rect y="0.833496" width="39.3333" height="39.3333" rx="8" fill="#F5F7F9"/>
<path d="M10.3437 15.8661C10.5485 15.9163 10.7402 16.0101 10.9055 16.1411C11.0708 16.2721 11.2059 16.4372 11.3016 16.6251C11.3973 16.8131 11.4514 17.0194 11.4601 17.2302C11.4688 17.4409 11.432 17.651 11.3521 17.8463L11.2237 18.1946C10.9166 19.3359 10.8421 20.5272 11.0045 21.6979C11.1668 22.8686 11.5629 23.9947 12.1691 25.0092C12.7752 26.0238 13.5791 26.9062 14.533 27.604C15.4869 28.3018 16.5714 28.8007 17.7219 29.0711C18.8724 29.3416 20.0655 29.378 21.2304 29.1782C22.3953 28.9784 23.5081 28.5465 24.5028 27.9082C25.4974 27.2699 26.3537 26.4381 27.0205 25.4624C27.6874 24.4866 28.1514 23.3868 28.3849 22.2282C28.5132 21.4215 29.1732 20.7614 29.98 20.7614C30.7867 20.7614 31.4651 21.4215 31.355 22.2282C31.1254 23.8466 30.5606 25.3992 29.6968 26.787C28.8331 28.1747 27.6893 29.367 26.3387 30.2877C24.9881 31.2083 23.4602 31.8371 21.8528 32.1339C20.2453 32.4306 18.5937 32.3888 17.0033 32.0111C15.413 31.6333 13.9189 30.928 12.6166 29.9401C11.3143 28.9522 10.2324 27.7036 9.44003 26.2739C8.64764 24.8442 8.1622 23.265 8.01473 21.637C7.86725 20.0091 8.06099 18.3683 8.58357 16.8195C8.70164 16.4672 8.94901 16.1729 9.27571 15.9959C9.60241 15.8189 9.9841 15.7726 10.3437 15.8661Z" fill="url(#paint0_linear_201_14592)"/>
<defs>
<linearGradient id="paint0_linear_201_14592" x1="27.965" y1="29.5865" x2="8.4466" y2="17.2579" gradientUnits="userSpaceOnUse">
<stop stop-color="#0353A4"/>
<stop offset="0.8" stop-color="#0353A4" stop-opacity="0.1"/>
<stop offset="0.9" stop-color="#0353A4" stop-opacity="0"/>
<stop offset="1" stop-color="#0353A4" stop-opacity="0"/>
</linearGradient>
</defs>
</svg>
