<svg width="40" height="41" viewBox="0 0 40 41" fill="none" xmlns="http://www.w3.org/2000/svg">
<rect y="0.5" width="40" height="40" rx="4" fill="#F5F7F9"/>
<path d="M20.292 9.34277H16.5752C14.6237 9.34277 13.6479 9.34277 12.9026 9.72256C12.2469 10.0566 11.7139 10.5897 11.3798 11.2453C11 11.9907 11 12.9665 11 14.918V24.6746C11 26.6261 11 27.6018 11.3798 28.3472C11.7139 29.0028 12.2469 29.5359 12.9026 29.87C13.6479 30.2498 14.6237 30.2498 16.5752 30.2498H18.5497M20.292 9.34277L27.261 16.3118M20.292 9.34277V12.595C20.292 13.896 20.292 14.5465 20.5452 15.0434C20.7679 15.4805 21.1233 15.8359 21.5604 16.0586C22.0573 16.3118 22.7078 16.3118 24.0088 16.3118H27.261M27.261 16.3118V21.5385M15.646 25.6038H18.5497M15.646 20.9578H22.615M15.646 16.3118H16.8075" stroke="#0353A4" stroke-width="2.0907" stroke-linecap="round" stroke-linejoin="round"/>
<path d="M22.7619 31.5C22.5524 31.5 22.3731 31.4255 22.224 31.2764C22.0749 31.1273 22.0003 30.9479 22 30.7381V26.9286C22 26.719 22.0747 26.5397 22.224 26.3907C22.3733 26.2416 22.5526 26.1669 22.7619 26.1667H23.1429V25.4048C23.1429 24.8778 23.3286 24.4286 23.7002 24.0573C24.0717 23.686 24.5209 23.5003 25.0476 23.5C25.5743 23.4997 26.0236 23.6855 26.3954 24.0573C26.7672 24.4291 26.9529 24.8783 26.9524 25.4048V26.1667H27.3333C27.5429 26.1667 27.7223 26.2413 27.8716 26.3907C28.021 26.54 28.0955 26.7193 28.0952 26.9286V30.7381C28.0952 30.9476 28.0207 31.127 27.8716 31.2764C27.7225 31.4257 27.5431 31.5003 27.3333 31.5H22.7619ZM25.0476 29.5952C25.2571 29.5952 25.4366 29.5207 25.5859 29.3716C25.7352 29.2225 25.8098 29.0431 25.8095 28.8333C25.8093 28.6236 25.7347 28.4443 25.5859 28.2954C25.4371 28.1466 25.2577 28.0719 25.0476 28.0714C24.8376 28.0709 24.6583 28.1456 24.5097 28.2954C24.3611 28.4453 24.2865 28.6246 24.2857 28.8333C24.285 29.0421 24.3596 29.2215 24.5097 29.3716C24.6598 29.5217 24.8391 29.5963 25.0476 29.5952ZM23.9048 26.1667H26.1905V25.4048C26.1905 25.0873 26.0794 24.8175 25.8571 24.5952C25.6349 24.373 25.3651 24.2619 25.0476 24.2619C24.7302 24.2619 24.4603 24.373 24.2381 24.5952C24.0159 24.8175 23.9048 25.0873 23.9048 25.4048V26.1667Z" fill="#0353A4"/>
</svg>
