<svg width="40" height="41" viewBox="0 0 40 41" fill="none" xmlns="http://www.w3.org/2000/svg">
<rect y="0.833496" width="39.3333" height="39.3333" rx="8" fill="#F5F7F9"/>
<path d="M22.2817 27.9268L24.6047 30.2498L29.2507 25.6038M19.9587 9.34277H16.2419C14.2904 9.34277 13.3147 9.34277 12.5693 9.72256C11.9137 10.0566 11.3806 10.5897 11.0465 11.2453C10.6667 11.9907 10.6667 12.9665 10.6667 14.918V24.6746C10.6667 26.6261 10.6667 27.6018 11.0465 28.3472C11.3806 29.0028 11.9137 29.5359 12.5693 29.87C13.3147 30.2498 14.2904 30.2498 16.2419 30.2498H18.2165M19.9587 9.34277L26.9277 16.3118M19.9587 9.34277V12.595C19.9587 13.896 19.9587 14.5465 20.2119 15.0434C20.4346 15.4805 20.79 15.8359 21.2271 16.0586C21.724 16.3118 22.3745 16.3118 23.6755 16.3118H26.9277M26.9277 16.3118V21.5385M15.3127 25.6038H18.2165M15.3127 20.9578H22.2817M15.3127 16.3118H16.4742" stroke="#06A32E" stroke-width="2.0907" stroke-linecap="round" stroke-linejoin="round"/>
</svg>
